<svg xmlns="http://www.w3.org/2000/svg" viewBox="0 0 461 519.2"><defs><style>.cls-1{fill:#0095b7;}.cls-2{fill:#ea8b00;}.cls-3{fill:#fff;}.cls-4{font-size:69.53px;fill:#595b5b;font-family:Righteous-Regular, Righteous Regular;}.cls-5{letter-spacing:-0.03em;}.cls-6{letter-spacing:0em;}.cls-7{letter-spacing:-0.04em;}.cls-8{letter-spacing:0.01em;}.cls-9{letter-spacing:-0.05em;}</style></defs><g id="Layer_2" data-name="Layer 2"><g id="Layer_1-2" data-name="Layer 1"><path class="cls-1" d="M332,46.2S384.3,7.8,438.8,20.8c0,0-90.8,41.5-62.3,149.5,27.8,105.2-18.1,239.6-202.3,229.2,0,0,94.7-21.9,132.3-119.3S288.3,101.2,332,46.2Z"/><circle class="cls-2" cx="220.9" cy="150.5" r="150.5"/><circle class="cls-3" cx="222.2" cy="151.8" r="94.7"/><path class="cls-1" d="M65.2,269.8s22.1,95.7,82.4,117.9c0,0,47.3-11.4,82.4-36.1C230,351.6,134,367.1,65.2,269.8Z"/><path class="cls-1" d="M436.2,10.4l12.7,7.2-7.5,10s13.2-8,19.6-10A168.4,168.4,0,0,0,436.2,10.4Z"/><text class="cls-4" transform="translate(0.1 501.8)"><tspan class="cls-5">T</tspan><tspan class="cls-6" x="32.7" y="0">OUR</tspan><tspan class="cls-7" x="163" y="0"> </tspan><tspan x="174.9" y="0">T</tspan><tspan class="cls-8" x="209.4" y="0">R</tspan><tspan class="cls-9" x="247.2" y="0">A</tspan><tspan x="286" y="0">VEL</tspan></text></g></g></svg>