<svg xmlns="http://www.w3.org/2000/svg" viewBox="0 0 21.71 19.58"><defs><style>.cls-1{fill:#107088;}.cls-2{fill:none;}.cls-3{fill:#fff;}</style></defs><title>blue_map</title><g id="Layer_2" data-name="Layer 2"><g id="Layer_1-2" data-name="Layer 1"><path class="cls-1" d="M0,8.43V18.65a.93.93,0,0,0,1.28.86L6,17.57,6,5.44.53,7.64A.85.85,0,0,0,0,8.43Z"/><polygon class="cls-1" points="7.23 17.49 14.45 19.59 14.45 6.95 7.23 6.71 7.23 17.49"/><path class="cls-1" d="M15.69,7.36l0,12.17,5.57-2.22a.73.73,0,0,0,.45-.67V6a.72.72,0,0,0-1-.67Z"/><path class="cls-2" d="M21.69,17.13l0-10.83a.9.9,0,0,0-1.23-.83L15.69,7.36"/><path class="cls-1" d="M10.89.5A4.7,4.7,0,0,0,6.24,5.07c0,2.18,4,7.84,4.6,7.84s4.51-5.51,4.6-7.66A4.69,4.69,0,0,0,10.89.5Zm-.06,6.11a1.52,1.52,0,1,1,1.52-1.52A1.52,1.52,0,0,1,10.83,6.61Z"/><path class="cls-3" d="M10.84,13.41c-.25,0-.5-.14-.86-.51C8.74,11.63,5.7,7.13,5.74,5.06A5.19,5.19,0,0,1,10.89,0a4.9,4.9,0,0,1,3.57,1.56,5.13,5.13,0,0,1,1.48,3.71C15.85,7.25,12,13.41,10.84,13.41ZM10.89,1A4.17,4.17,0,0,0,6.74,5.08c0,1.78,3.13,6.46,4.1,7.27.92-.8,4-5.36,4.1-7.13a4.18,4.18,0,0,0-1.2-3A3.91,3.91,0,0,0,10.89,1Zm-.06,6.11a2,2,0,1,1,2-2A2,2,0,0,1,10.83,7.11Zm0-3a1,1,0,1,0,1,1A1,1,0,0,0,10.83,4.07Z"/></g></g></svg>