<svg id="Layer_1" data-name="Layer 1" xmlns="http://www.w3.org/2000/svg" viewBox="0 0 486.35 510.65"><defs><style>.cls-1{fill:#006e88;}.cls-2{fill:#ea8b00;}.cls-3{fill:#525252;}</style></defs><path class="cls-1" d="M561.22,245.55S613.52,207.1,668,220.08c0,0-90.8,41.5-62.26,149.52,27.79,105.22-18.16,239.61-202.35,229.23,0,0,94.69-21.91,132.3-119.27S517.53,300.5,561.22,245.55Z" transform="translate(-229.87 -191.55)"/><path class="cls-2" d="M450.08,199.32A150.47,150.47,0,1,0,600.55,349.79,150.46,150.46,0,0,0,450.08,199.32Zm1.3,246.45a94.69,94.69,0,1,1,94.69-94.69A94.68,94.68,0,0,1,451.38,445.77Z" transform="translate(-229.87 -191.55)"/><path class="cls-1" d="M294.43,469.12S316.48,564.78,376.8,587c0,0,47.34-11.38,82.36-36.09C459.16,550.91,363.18,566.4,294.43,469.12Z" transform="translate(-229.87 -191.55)"/><path class="cls-1" d="M648.07,191.55l34.11,23.84-24.11,26.35s39.56-19.14,58.15-23.08C716.22,218.66,684.1,202.43,648.07,191.55Z" transform="translate(-229.87 -191.55)"/><path class="cls-3" d="M254.22,701.14h-9.71V662.2H229.87v-9.74h38.94v9.74H254.22Z" transform="translate(-229.87 -191.55)"/><path class="cls-3" d="M320.15,677a24.65,24.65,0,0,1-.9,6.68,25.93,25.93,0,0,1-2.53,6,25,25,0,0,1-3.94,5.11,25.89,25.89,0,0,1-5.09,4,24.46,24.46,0,0,1-6,2.54,25.09,25.09,0,0,1-19.37-2.54,25.33,25.33,0,0,1-11.61-15.07,25.24,25.24,0,0,1,0-13.36,25.08,25.08,0,0,1,2.54-6,25.66,25.66,0,0,1,4-5.1,24.93,24.93,0,0,1,5.11-3.93,25.58,25.58,0,0,1,6-2.53,25.24,25.24,0,0,1,13.36,0,25.13,25.13,0,0,1,17.57,17.57A24.75,24.75,0,0,1,320.15,677Zm-9.68,0a15.14,15.14,0,0,0-1.22-6,15.72,15.72,0,0,0-3.31-4.92,15.39,15.39,0,0,0-4.92-3.31,15.42,15.42,0,0,0-12.07,0,15.77,15.77,0,0,0-4.93,3.31A15.42,15.42,0,0,0,280.7,671a15,15,0,0,0-1.23,6,14.77,14.77,0,0,0,1.23,6,15.66,15.66,0,0,0,8.25,8.23,15.54,15.54,0,0,0,12.07,0,15.44,15.44,0,0,0,4.92-3.33,16.11,16.11,0,0,0,3.31-4.9A14.94,14.94,0,0,0,310.47,677Z" transform="translate(-229.87 -191.55)"/><path class="cls-3" d="M364.93,681.69a19,19,0,0,1-1.53,7.59,19.56,19.56,0,0,1-4.18,6.18,19.89,19.89,0,0,1-6.19,4.16,19.71,19.71,0,0,1-15.18,0,19.43,19.43,0,0,1-10.34-10.34,19.16,19.16,0,0,1-1.52-7.59V652.46h9.71v29.23a9.37,9.37,0,0,0,.76,3.77,9.92,9.92,0,0,0,2.09,3.09,9.71,9.71,0,0,0,3.1,2.08,9.69,9.69,0,0,0,7.57,0,9.65,9.65,0,0,0,3.11-2.08,10.1,10.1,0,0,0,2.09-3.09,9.37,9.37,0,0,0,.76-3.77V652.46h9.75Z" transform="translate(-229.87 -191.55)"/><path class="cls-3" d="M383.12,701.14h-9.74V652.46h19.49a19.18,19.18,0,0,1,5.16.69,19.54,19.54,0,0,1,13.59,13.64,18.74,18.74,0,0,1,.7,5.16,18.93,18.93,0,0,1-.63,4.88,20.12,20.12,0,0,1-1.8,4.52,18.65,18.65,0,0,1-2.87,3.94,19.33,19.33,0,0,1-3.8,3.12l5.4,12.73H398.27L394,691.33l-10.9.07Zm0-38.94v19.49h9.75a9.58,9.58,0,0,0,3.77-.76,10.1,10.1,0,0,0,3.09-2.09,9.81,9.81,0,0,0,2.08-3.11,9.69,9.69,0,0,0,0-7.57,9.93,9.93,0,0,0-2.08-3.11,10.07,10.07,0,0,0-3.09-2.08,9.42,9.42,0,0,0-3.77-.77Z" transform="translate(-229.87 -191.55)"/><path class="cls-3" d="M458.59,701.14h-9.71V662.2H434.25v-9.74h38.94v9.74h-14.6Z" transform="translate(-229.87 -191.55)"/><path class="cls-3" d="M488.1,701.14h-9.75V652.46h19.49a19.13,19.13,0,0,1,5.16.69,19.45,19.45,0,0,1,4.63,2,19.61,19.61,0,0,1,9,11.67,19.13,19.13,0,0,1,.69,5.16,19.37,19.37,0,0,1-.62,4.88,20.12,20.12,0,0,1-1.8,4.52,19,19,0,0,1-2.87,3.94,19.33,19.33,0,0,1-3.8,3.12l5.39,12.73H503.24L499,691.33l-10.9.07Zm0-38.94v19.49h9.74a9.55,9.55,0,0,0,3.77-.76,9.79,9.79,0,0,0,5.18-5.2,9.81,9.81,0,0,0,0-7.57,10,10,0,0,0-2.09-3.11,9.84,9.84,0,0,0-3.09-2.08,9.38,9.38,0,0,0-3.77-.77Z" transform="translate(-229.87 -191.55)"/><path class="cls-3" d="M562.07,701.14h-9.74V691.4H532.84v9.74h-9.71V672a18.92,18.92,0,0,1,1.53-7.59,19.93,19.93,0,0,1,4.16-6.2A19.31,19.31,0,0,1,535,654a19.57,19.57,0,0,1,15.17,0,19.51,19.51,0,0,1,10.38,10.37,19.09,19.09,0,0,1,1.52,7.59Zm-9.74-19.45V672a9.5,9.5,0,0,0-.76-3.79,10,10,0,0,0-2.09-3.11,9.81,9.81,0,0,0-3.11-2.08,9.69,9.69,0,0,0-7.57,0,9.61,9.61,0,0,0-5.19,5.19,9.51,9.51,0,0,0-.77,3.79v9.74Z" transform="translate(-229.87 -191.55)"/><path class="cls-3" d="M606.68,652.46l-16,48.68H581L565,652.46h11.06L585.8,685l9.75-32.49Z" transform="translate(-229.87 -191.55)"/><path class="cls-3" d="M644.71,701.14H611.33V652.46h33.38v9.74H621.08V672h16v9.74h-16v9.71h23.63Z" transform="translate(-229.87 -191.55)"/><path class="cls-3" d="M685.62,701.14H651.53V652.46h9.74V691.4h24.35Z" transform="translate(-229.87 -191.55)"/></svg>