<svg xmlns="http://www.w3.org/2000/svg" viewBox="0 0 23 20.14"><defs><style>.cls-1{fill:#f3fafd;}</style></defs><title>white_car</title><g id="Layer_2" data-name="Layer 2"><g id="Layer_1-2" data-name="Layer 1"><path class="cls-1" d="M21.23,7.42v0l-1.6-4.53A4.28,4.28,0,0,0,15.6,0H7.41A4.29,4.29,0,0,0,3.36,2.88L1.79,7.39h0A3,3,0,0,0,0,10v8.71a1.48,1.48,0,0,0,1.48,1.48h1.4a1.48,1.48,0,0,0,1.48-1.48V16.57H18.7v2.14a1.43,1.43,0,0,0,1.43,1.43h1.44A1.43,1.43,0,0,0,23,18.71V10A3,3,0,0,0,21.23,7.42ZM6.09,3.83a1.41,1.41,0,0,1,1.34-1h8.14a1.41,1.41,0,0,1,1.33.94l1.21,3.36H5ZM4.34,13a1.45,1.45,0,1,1,1.45-1.44A1.44,1.44,0,0,1,4.34,13Zm14.36,0a1.44,1.44,0,1,1,1.44-1.43A1.43,1.43,0,0,1,18.7,12.94Z"/></g></g></svg>