<svg xmlns="http://www.w3.org/2000/svg" viewBox="0 0 22.16 18.69"><defs><style>.cls-1{fill:#fff;}</style></defs><title>white_heart</title><g id="Layer_2" data-name="Layer 2"><g id="Layer_1-2" data-name="Layer 1"><path class="cls-1" d="M11.13,18.69a1,1,0,0,1-.63-.22C9.94,18,9.31,17.54,8.66,17,5,14.25.52,10.78,0,6.75A6.24,6.24,0,0,1,1.56,2,6.26,6.26,0,0,1,6.32,0a6.58,6.58,0,0,1,4.73,2.22A6.82,6.82,0,0,1,15.74,0h.11A6.87,6.87,0,0,1,20.7,2.35a5.2,5.2,0,0,1,1.44,4c-.32,4-5.05,7.79-8.86,10.87l-1.51,1.24A1,1,0,0,1,11.13,18.69ZM6.2,2A4.47,4.47,0,0,0,3.12,3.26,4.2,4.2,0,0,0,2,6.52c.37,3.19,4.52,6.37,7.84,8.93l1.24,1,.91-.74C15.35,13,19.9,9.29,20.15,6.19a3.28,3.28,0,0,0-.94-2.51A4.87,4.87,0,0,0,15.78,2c-1.34,0-2.68.84-4,2.42a1,1,0,0,1-.8.36,1,1,0,0,1-.77-.4A5,5,0,0,0,6.28,2Z"/></g></g></svg>