<svg xmlns="http://www.w3.org/2000/svg" viewBox="0 0 486.35 510.69"><defs><style>.cls-1{fill:#fff;}.cls-2{fill:#ea8b00;}</style></defs><title>white_logo</title><g id="Layer_2" data-name="Layer 2"><g id="Layer_1-2" data-name="Layer 1"><path class="cls-1" d="M331.35,54s52.3-38.45,106.78-25.47c0,0-90.8,41.5-62.26,149.52,27.79,105.22-18.16,239.61-202.35,229.23,0,0,94.69-21.91,132.3-119.27S287.66,109,331.35,54Z"/><path class="cls-2" d="M220.21,7.77A150.47,150.47,0,1,0,370.68,158.24,150.47,150.47,0,0,0,220.21,7.77Zm1.3,246.45a94.69,94.69,0,1,1,94.69-94.69h0a94.68,94.68,0,0,1-94.67,94.69Z"/><path class="cls-1" d="M64.56,277.57s22,95.66,82.37,117.88c0,0,47.34-11.38,82.36-36.09C229.29,359.36,133.31,374.85,64.56,277.57Z"/><path class="cls-1" d="M418.2,0l34.11,23.84L428.2,50.19s39.56-19.14,58.15-23.08C486.35,27.11,454.23,10.88,418.2,0Z"/><path class="cls-1" d="M24.35,509.59H14.64V470.65H0v-9.74H38.94v9.74H24.35Z"/><path class="cls-1" d="M90.28,485.45a24.68,24.68,0,0,1-.9,6.68,26.16,26.16,0,0,1-2.53,6,25.06,25.06,0,0,1-3.94,5.11,26,26,0,0,1-5.09,4,24.77,24.77,0,0,1-6,2.54,25.16,25.16,0,0,1-28.44-37,25.65,25.65,0,0,1,4-5.1,24.67,24.67,0,0,1,5.11-3.93,25.15,25.15,0,0,1,36.93,15A24.73,24.73,0,0,1,90.28,485.45Zm-9.68,0a15.11,15.11,0,0,0-1.22-6,15.62,15.62,0,0,0-3.31-4.92,15.5,15.5,0,0,0-17-3.31,15.48,15.48,0,0,0-8.25,8.23,15.25,15.25,0,0,0,0,12,15.52,15.52,0,0,0,20.32,8.23,15.4,15.4,0,0,0,4.92-3.33,16.12,16.12,0,0,0,3.31-4.9A14.91,14.91,0,0,0,80.6,485.45Z"/><path class="cls-1" d="M135.06,490.14a18.86,18.86,0,0,1-1.53,7.59,19.41,19.41,0,0,1-4.18,6.18A19.52,19.52,0,0,1,108,508.07a19.45,19.45,0,0,1-10.34-10.34,19.2,19.2,0,0,1-1.52-7.59V460.91h9.71v29.23a9.38,9.38,0,0,0,.76,3.77,10,10,0,0,0,2.09,3.09,9.76,9.76,0,0,0,10.67,2.08,9.6,9.6,0,0,0,3.11-2.08,10.16,10.16,0,0,0,2.09-3.09,9.38,9.38,0,0,0,.76-3.77V460.91h9.75Z"/><path class="cls-1" d="M153.25,509.59h-9.74V460.91H163a19.16,19.16,0,0,1,5.16.69,19.53,19.53,0,0,1,13.59,13.64,18.78,18.78,0,0,1,.7,5.16,19.1,19.1,0,0,1-.63,4.88,20,20,0,0,1-1.8,4.52,18.85,18.85,0,0,1-2.87,3.94,19.26,19.26,0,0,1-3.8,3.12l5.4,12.73H168.4l-4.27-9.81-10.9.07Zm0-38.94v19.49H163a9.55,9.55,0,0,0,3.77-.76,10.16,10.16,0,0,0,3.09-2.09,9.76,9.76,0,0,0,2.08-3.11,9.66,9.66,0,0,0,0-7.57,9.66,9.66,0,0,0-5.17-5.19,9.39,9.39,0,0,0-3.77-.77Z"/><path class="cls-1" d="M228.72,509.59H219V470.65H204.38v-9.74h38.94v9.74h-14.6Z"/><path class="cls-1" d="M258.23,509.59h-9.75V460.91H268a19.16,19.16,0,0,1,5.16.69,19.91,19.91,0,0,1,13.63,13.67,19.16,19.16,0,0,1,.69,5.16,19.55,19.55,0,0,1-.62,4.88,20,20,0,0,1-1.8,4.52,18.85,18.85,0,0,1-2.87,3.94,19.26,19.26,0,0,1-3.8,3.12l5.39,12.73H273.37l-4.24-9.84-10.9.07Zm0-38.94v19.49H268a9.55,9.55,0,0,0,3.77-.76,9.76,9.76,0,0,0,5.18-12.77,9.72,9.72,0,0,0-5.18-5.19,9.39,9.39,0,0,0-3.77-.77Z"/><path class="cls-1" d="M332.2,509.59h-9.74v-9.74H303v9.74h-9.71V480.45a18.86,18.86,0,0,1,1.53-7.59,20,20,0,0,1,4.16-6.2,19.46,19.46,0,0,1,31.73,6.16,19,19,0,0,1,1.52,7.59Zm-9.74-19.45v-9.69a9.51,9.51,0,0,0-.76-3.79,9.9,9.9,0,0,0-2.09-3.11,9.76,9.76,0,0,0-3.11-2.08,9.74,9.74,0,0,0-12.76,5.19,9.52,9.52,0,0,0-.77,3.79v9.74Z"/><path class="cls-1" d="M376.81,460.91l-16,48.68h-9.68l-16-48.68h11.06l9.74,32.54L365.68,461Z"/><path class="cls-1" d="M414.84,509.59H381.46V460.91h33.38v9.74H391.21v9.8h16v9.74h-16v9.71h23.63Z"/><path class="cls-1" d="M455.75,509.59H421.66V460.91h9.74v38.94h24.35Z"/></g></g></svg>