<svg xmlns="http://www.w3.org/2000/svg" viewBox="0 0 576 512.01"><defs><style>.cls-1{fill:#fff;}</style></defs><title>white_shopping_card</title><g id="Layer_2" data-name="Layer 2"><g id="Layer_1-2" data-name="Layer 1"><path class="cls-1" d="M171.7,191.11H404.3l-81.6-156a24,24,0,1,1,42.6-22.14l93.1,178.17H544c17.7,0,32,15.2,32,32,0,18.6-14.3,32-32,32l-51.9,208.4C484.1,492,459.4,512,430,512H145.1c-28.5,0-54.1-20-61.22-48.5L32,255.11c-17.67,0-32-13.4-32-32,0-16.8,14.33-32,32-32h85.6L210.7,12.94a24,24,0,1,1,42.6,22.14Zm19.4,112a16,16,0,0,0-16-16c-7.9,0-16,8-16,16v96a16,16,0,0,0,16,16c9.7,0,16-6.3,16-16Zm80,0v96a16,16,0,0,0,16,16c9.7,0,16.9-6.3,16.9-16v-96c0-8-7.2-16-16.9-16-7.9,0-16,8-16,16m144.9,0c0-8-7.2-16-16-16s-16,8-16,16v96c0,9.7,7.2,16,16,16s16-6.3,16-16Z"/></g></g></svg>