<svg xmlns="http://www.w3.org/2000/svg" viewBox="0 0 23.16 15.51"><defs><style>.cls-1{fill:#fff;}</style></defs><title>white_plane</title><g id="Layer_2" data-name="Layer 2"><g id="Layer_1-2" data-name="Layer 1"><path class="cls-1" d="M16.73,5.19H15.34V2.6h6.52a1.3,1.3,0,1,0,0-2.6H6.18A1.3,1.3,0,0,0,4.89,1.3v0a1.3,1.3,0,0,0,1.29,1.3h6.54V5.19l-8.39,0L2.79,3.09a1.2,1.2,0,0,0-.95-.48H.64A.64.64,0,0,0,0,3.39l.92,3.7a1.43,1.43,0,0,0,.83,1L7.59,10.4,11.06,15a1.21,1.21,0,0,0,1,.48h9.85a1.21,1.21,0,0,0,1.21-1.21V11.54A6.35,6.35,0,0,0,16.73,5.19Zm3.76,7.75H15.35V7.76l1.39,0a3.82,3.82,0,0,1,3.75,3.82Z"/></g></g></svg>